<svg width="1600" height="1200" viewBox="0 0 1600 1200" fill="none" xmlns="http://www.w3.org/2000/svg">
  <rect width="1600" height="1200" rx="56" fill="#FFF7F6"/>
  <rect x="72" y="72" width="1456" height="1056" rx="40" fill="url(#panel)"/>
  <rect x="120" y="120" width="320" height="960" rx="28" fill="#2A1D29"/>
  <rect x="152" y="168" width="180" height="28" rx="14" fill="#F7C76F"/>
  <rect x="152" y="236" width="208" height="16" rx="8" fill="#D298A8"/>
  <rect x="152" y="280" width="244" height="16" rx="8" fill="#D298A8"/>
  <rect x="152" y="324" width="180" height="16" rx="8" fill="#D298A8"/>
  <rect x="152" y="420" width="256" height="220" rx="24" fill="#3A2938"/>
  <rect x="182" y="458" width="112" height="16" rx="8" fill="#FFFFFF"/>
  <rect x="182" y="506" width="186" height="12" rx="6" fill="#F2D5DC"/>
  <rect x="182" y="546" width="154" height="12" rx="6" fill="#F2D5DC"/>
  <rect x="182" y="588" width="126" height="36" rx="18" fill="#F65C88"/>
  <rect x="484" y="120" width="996" height="200" rx="28" fill="#FFFFFF"/>
  <circle cx="556" cy="192" r="34" fill="#F65C88"/>
  <rect x="620" y="164" width="226" height="20" rx="10" fill="#241821"/>
  <rect x="620" y="206" width="164" height="14" rx="7" fill="#A57684"/>
  <rect x="620" y="248" width="310" height="14" rx="7" fill="#D2AEB9"/>
  <rect x="1088" y="156" width="322" height="124" rx="24" fill="url(#badge)"/>
  <rect x="1128" y="194" width="170" height="14" rx="7" fill="#7B5322"/>
  <rect x="1128" y="230" width="238" height="16" rx="8" fill="#9D7542"/>
  <rect x="484" y="352" width="478" height="352" rx="32" fill="#FFFFFF"/>
  <rect x="528" y="408" width="140" height="18" rx="9" fill="#2A1D29"/>
  <rect x="528" y="456" width="120" height="14" rx="7" fill="#B18491"/>
  <rect x="528" y="526" width="78" height="132" rx="18" fill="#F7C76F"/>
  <rect x="632" y="480" width="78" height="178" rx="18" fill="#F08AA6"/>
  <rect x="736" y="434" width="78" height="224" rx="18" fill="#D86A8B"/>
  <rect x="840" y="564" width="78" height="94" rx="18" fill="#F4DCA4"/>
  <rect x="992" y="352" width="488" height="352" rx="32" fill="#FFFFFF"/>
  <rect x="1036" y="408" width="200" height="18" rx="9" fill="#2A1D29"/>
  <rect x="1036" y="454" width="138" height="14" rx="7" fill="#A57684"/>
  <rect x="1036" y="514" width="400" height="72" rx="24" fill="#FFF0F3"/>
  <rect x="1068" y="540" width="164" height="18" rx="9" fill="#D95A86"/>
  <rect x="1068" y="598" width="116" height="14" rx="7" fill="#D2AEB9"/>
  <rect x="1036" y="616" width="400" height="56" rx="24" fill="#FFF7E6"/>
  <rect x="1068" y="636" width="190" height="18" rx="9" fill="#B68539"/>
  <rect x="484" y="736" width="996" height="344" rx="32" fill="#FFFFFF"/>
  <rect x="528" y="792" width="220" height="18" rx="9" fill="#2A1D29"/>
  <rect x="528" y="838" width="150" height="14" rx="7" fill="#A57684"/>
  <rect x="528" y="900" width="908" height="28" rx="14" fill="#F4DCA4"/>
  <rect x="528" y="952" width="720" height="28" rx="14" fill="#F1B7C7"/>
  <rect x="528" y="1004" width="600" height="28" rx="14" fill="#E4CBD3"/>
  <defs>
    <linearGradient id="panel" x1="72" y1="72" x2="1528" y2="1128" gradientUnits="userSpaceOnUse">
      <stop stop-color="#FFF9F7"/>
      <stop offset="1" stop-color="#FFF2EC"/>
    </linearGradient>
    <linearGradient id="badge" x1="1088" y1="156" x2="1410" y2="280" gradientUnits="userSpaceOnUse">
      <stop stop-color="#FDE8B8"/>
      <stop offset="1" stop-color="#F5C66C"/>
    </linearGradient>
  </defs>
</svg>
